<svg width="40" height="31" fill="none" xmlns="http://www.w3.org/2000/svg"><path d="M37.002.19c-3.74.214-11.172.987-15.76 3.801-.318.194-.497.54-.497.9v24.874c0 .79.862 1.289 1.589.922 4.72-2.38 11.548-3.03 14.924-3.207 1.153-.06 2.049-.986 2.049-2.096V2.29c0-1.211-1.047-2.17-2.305-2.1ZM18.066 3.992C13.478 1.177 6.045.404 2.306.191 1.047.12 0 1.079 0 2.29v23.095c0 1.11.896 2.035 2.049 2.096 3.377.177 10.208.827 14.93 3.21.724.365 1.583-.133 1.583-.921V4.879a1.03 1.03 0 0 0-.496-.888Z" fill="#28A745"/></svg>