<svg version="1.0" xmlns="http://www.w3.org/2000/svg" width="1706.667" height="1706.667" viewBox="0 0 1280 1280"><path d="M59.9 150.4c-.3.3-2.1.7-3.9 1-5.7.7-23.2 7.5-25 9.6-.3.3-2.3 1.9-4.5 3.5-6.5 4.8-13.4 12.4-16.6 18.3-3.2 6-3.5 6.5-5.3 10.2C-.2 203.2 0 184.2.1 587 .2 979.1.1 970.8 4 978.5c.5 1.1 1.4 3.3 2 4.8 2 5.7 10.1 16.6 16.2 22 13.8 12.1 26.8 17.2 46.5 18.2 4 .2 7.8.7 8.4 1.1.8.4.9.3.5-.4-.5-.9-.1-1 1.6-.4 1.3.5 4.7.8 7.6.8 2.8-.1 5.2.1 5.2.4 0 .3 2.4.5 5.2.4 2.9-.1 6.1.3 7 .8 1.2.6 1.8.5 1.8-.2 0-.6.5-.8 1-.5.6.4 4.3.9 8.3 1.1 8 .6 14.2 1.1 14.2 1.4 0 .1 3.2.3 7 .6 3.9.2 8.8.6 11 .9 2.2.2 6.9.7 10.5 1 3.6.3 8.5.8 11 1 2.5.3 6.3.7 8.5 1 2.2.2 4 .4 4 .5 0 .1 1.6.3 3.5.4 3.3.2 11.9 1.2 18.5 2.2 1.7.2 4.8.6 7.1.9 2.2.2 5.4.6 7 .9 1.6.3 5.6.8 8.9 1.2 3.3.3 6.9.8 8 1 1.1.2 4 .7 6.5 1 2.5.3 5.6.8 7 1 1.4.3 3.9.7 5.5.9 4.8.8 8.5 1.4 15.5 2.5 3.6.6 7.7 1.2 9.1 1.5 1.4.2 6.4 1.1 11 2 4.6.9 10 1.8 11.9 2.1 6.7 1 8 1.3 8.8 1.8.4.2 2.8.7 5.2 1 2.5.3 6.3 1 8.5 1.5 2.2.6 4 1 4 1s1.1.2 2.5.5 3.7.8 5.3 1.1c2.6.5 4.6.9 9.7 2 1.4.4 3.6.8 5 1.1 1.4.3 3.2.7 4 .9.8.2 1.7.4 2 .5.3.1.8.2 1.1.2.4-.1 2.2.3 4 .9 1.9.6 4.5 1.2 5.9 1.5 4.6.9 29.4 7.3 38.5 9.9 5 1.4 9.5 2.7 10 2.9.6.1 3 .9 5.5 1.6 2.5.8 4.7 1.4 5 1.5.3.1 2.5.7 5 1.4s6.8 2.1 9.6 3.1c2.9 1 5.5 1.6 5.8 1.3.3-.4.6 0 .6.7s.3 1.1.6.8c.3-.4 2.1 0 4 .8s3.6 1.4 3.9 1.4c.6.1 2.9.8 5.2 1.7 1 .3 2.1.7 2.6.8.4.2.8.3 1 .5.1.1.9.3 1.7.5.8.2 2.9.9 4.5 1.6 1.7.6 3.5 1.3 4.2 1.5 2.4.5 37.9 14.8 41.1 16.6 1.8 1 3.9 1.8 4.7 1.8.8 0 1.5.4 1.5.9 0 .8 4.7 2.5 5.2 1.9.2-.2 1.8.7 3.6 2 1.7 1.3 3.2 2 3.2 1.5 0-.4.4-.3.8.2.4.6 4.1 2.6 8.2 4.4 19 8.5 38.5 2.3 47.8-15.2l2.7-5.2v-814l-2.2-4.8c-1.3-2.7-2.9-5.5-3.7-6.2-.8-.8-1.6-1.8-1.8-2.2-1-2.3-14.4-11.1-28.3-18.5-12-6.4-41-20.5-44-21.4-.5-.1-7-2.8-14.4-6-7.4-3.1-13.9-5.7-14.5-5.8-.6-.1-2.2-.8-3.6-1.6-1.4-.7-2.5-1.2-2.5-1.1 0 .3-3-.7-6.1-1.9-3.7-1.5-26.6-9.2-28.3-9.5-.9-.2-2.9-.9-4.6-1.5-1.6-.6-3.7-1.3-4.5-1.6-.8-.2-6.9-2-13.5-3.9-6.6-2-14.4-4.3-17.2-5.1-11.6-3.1-16.9-4.5-18.3-4.9-.8-.1-3.3-.8-5.5-1.4-2.2-.6-5.1-1.2-6.5-1.5-1.4-.2-2.5-.5-2.5-.6 0-.2-2.1-.7-6-1.5-1.6-.3-4.8-1.1-7-1.6s-5.2-1.1-6.8-1.4c-1.5-.2-3.1-.7-3.6-.9-.5-.3-2.6-.8-4.7-1.1-2.2-.4-5.2-1-6.9-1.5-1.6-.4-4.8-1.2-7-1.6-2.2-.4-4.4-.8-5-.9-.5-.2-2.3-.5-4-.8-1.6-.3-6.4-1.2-10.5-2.1-4.1-.8-9.2-1.7-11.4-2-2.1-.4-4.1-.8-4.5-1.1-.4-.2-2.7-.6-5.2-.9-2.4-.3-8-1.2-12.4-2s-9.8-1.8-12-2.1c-2.3-.3-5.2-.7-6.5-1-1.3-.3-4.2-.7-6.5-1-2.2-.3-5.1-.8-6.5-1-1.4-.3-4.3-.7-6.5-1-2.2-.2-5.6-.7-7.5-1-5.5-.9-10.1-1.5-15.5-2.1-6.7-.7-9.3-1.1-10.5-1.9-.5-.3-1 0-1 .7 0 .8-.3.9-.8.3-.4-.6-2-1.2-3.7-1.3-4.2-.2-11-1-11-1.2 0-.1-1.8-.3-4-.5s-6.2-.6-9-.9c-2.7-.3-7.5-.8-10.5-1.1-3-.3-7.3-.7-9.5-.9-2.2-.3-6.9-.7-10.5-1-3.6-.4-9.2-.9-12.5-1.2-3.3-.3-8.2-.7-11-.9-2.7-.2-8.1-.7-12-1-15-1.4-48.9-2.8-49.6-2.1zM1171.7 150.6c-.2.3-5.6.7-22.2 1.9-2.2.1-8 .6-13 1-4.9.4-11 .9-13.5 1-2.5.2-4.5.4-4.5.5 0 .1-2.2.3-5 .5-2.7.2-8.1.7-12 1.1-3.8.4-8.5.8-10.2.8-1.8.1-3.3.3-3.3.6s-1.5.5-3.3.6c-3.1.1-10.9.9-17.2 1.7-2.8.4-12.6 1.6-18.5 2.3-9.2 1-11.9 1.3-14.5 1.8-1.7.2-5.1.7-7.6 1-2.5.4-5.7.9-7 1.1-1.3.2-4.4.6-6.9.9-2.5.3-9.7 1.4-16 2.5-6.3 1.1-13.3 2.3-15.5 2.6-2.2.4-4.7.8-5.5 1-.8.2-3.3.7-5.5 1-4.4.6-5.3.7-16.5 3-4.1.8-9.1 1.7-11 2-1.9.4-5.5 1.1-8 1.6-2.5.6-5.4 1.2-6.5 1.5-6.8 1.3-14.2 2.9-19 3.9-1.1.3-2.9.7-4 .9-1.1.2-5.8 1.4-10.5 2.5-4.7 1.2-9.5 2.3-10.7 2.6-3.4.7-4.8 1.1-15.8 4-19.5 5.1-24.2 6.4-27.1 7.5-1.6.6-2.9 1.1-2.9 1 0-.1-4 1-8.9 2.5s-9.4 2.8-10 3c-.6.1-1.8.5-2.6.8-2.3 1-11.4 3.9-12.5 4.1-.5.1-2.3.7-4 1.3-6.3 2.4-7.1 2.6-8.9 3-1.1.2-2.4.7-3 1.2-.6.4-2.3 1.1-3.7 1.4-1.4.4-4.3 1.4-6.5 2.4-2.1 1-4.3 1.8-4.9 1.9-.5 0-2.3.6-3.8 1.2-1.6.7-5.2 2.2-8 3.3-15.6 6.4-35.2 15.2-35.8 16.2-.3.5-.8.8-1 .7-.2-.1-1.7.4-3.4 1.1-1.6.7-3.3 1.2-3.7 1.1-.5-.1-.8.2-.8.6 0 .5-1.7 1.6-3.9 2.5-6 2.7-28 14.9-33.6 18.7-9.1 6.2-13.5 13.2-15 23.5-.2 1.1-.4 2-.5 2-.1 0-.1 4.5-.1 10 .1 5.5.1 10.9.1 12 0 1.1-.1 5.2-.1 9 0 3.9 0 7.5.1 8 .2.6.1 1.4 0 2-.7 3.2-.4 18.2.4 17.7.5-.3.6.1.1.8-.7 1.1-1.1 24.6-.5 27.5.1.5.1 1.4 0 2-.3 1.3-.3 28.7 0 30 .1.5.1 1.4 0 2-.3 1.3-.3 28.7 0 30 .1.5.1 1.4 0 2-.3 1.3-.3 28.7 0 30 .1.5.1 1.4 0 2-.3 1.3-.3 28.7 0 30 .1.5.1 1.4 0 2-.3 1.3-.3 28.7 0 30 .1.5.1 1.4 0 2-.3 1.3-.3 28.7 0 30 .1.5.1 1.4 0 2-.3 1.3-.3 28.7 0 30 .1.5.1 1.4 0 2-.3 1.3-.3 44.7 0 46 .1.5.1 1.4 0 2-.7 3.2-.4 18.2.4 17.7.5-.3.6.1.1.8-.9 1.5-1.1 39.2-.2 40.7.4.7.4 1.4 0 1.6-.7.4-.9 13.2-.3 14.7.1.3.1.9 0 1.5-.3 1.2-.3 15.5 0 17 .1.5.1 1.4 0 2-.7 3.2-.4 18.2.4 17.7.5-.3.6.1.1.8-.9 1.5-1.1 39.2-.2 40.7.4.7.4 1.4 0 1.6-.7.4-.9 13.2-.3 14.7.1.3.1.9 0 1.5-.3 1.2-.3 15.5 0 17 .1.5.1 1.4 0 2-.7 3.2-.4 18.2.4 17.7.5-.3.6.1.1.8-.7 1.1-1.1 24.6-.5 27.5.1.5.1 1.4 0 2-.3 1.3-.3 28.7 0 30 .1.5.1 1.4 0 2-.3 1.3-.3 28.7 0 30 .1.5.1 1.4 0 2-.3 1.3-.3 28.7 0 30 .1.5.1 1.4 0 2-.3 1.3-.3 44.7 0 46 .1.5.1 1.4 0 2-.7 3.2-.4 18.2.4 17.7.5-.3.6.1.1.8-1.2 1.9-.8 38.9.5 43.5.6 2.2 1.2 4.6 1.2 5.2.1.7.5 1.3.9 1.3s1 .8 1.4 1.9c.7 2.3 7.8 10.1 9.3 10.1.6 0 1.2.4 1.4.8.2.4 2.6 1.9 5.3 3.2 4.1 1.9 6.6 2.3 14 2.4 5.9 0 9.9-.5 11.5-1.4 1.4-.8 3-1.3 3.6-1.2.6.1 1.7-.5 2.4-1.3s2.1-1.5 3.1-1.5c1.1 0 1.9-.4 1.9-.9s1-1.2 2.3-1.6c1.2-.4 2.4-.8 2.7-1 1.4-.6 13-5.9 16.5-7.5 2.2-1 5.8-2.6 8-3.5 2.2-.9 4.9-2.1 6-2.6 7.6-3.2 14.5-5.7 14.5-5.1 0 .4.4.1.8-.5.4-.7 1.7-1.4 2.7-1.6 1.1-.1 2.6-.6 3.3-1.1.7-.4 2.5-1.1 4-1.6 1.5-.4 6.4-2.2 10.9-3.8 4.5-1.7 8.4-2.8 8.7-2.4.3.3.6-.1.6-.8 0-.7.3-1.1.6-.7.4.3 2.2 0 4.2-.8 1.9-.8 4.6-1.7 6.1-2 1.4-.2 2.7-.9 2.9-1.5.2-.5.7-.8 1.1-.6.4.3 6.6-1.3 13.7-3.5 12.8-4 44.6-12.7 49.3-13.6 1.3-.2 3.2-.8 4.1-1.3 1-.5 2-.7 2.2-.4.3.2 1.6 0 3-.5s3.8-1.2 5.4-1.5c1.6-.3 4.7-1 6.9-1.5s5.1-1.2 6.5-1.5c1.4-.3 3.6-.8 5-1.1 1.4-.3 3.6-.8 5-1.1 1.4-.3 5.2-1.1 8.5-1.9 3.3-.7 7.6-1.6 9.5-1.9 1.9-.3 4.6-.8 6-1.2 1.4-.3 3.4-.7 4.5-.8 1.1-.2 2-.4 2-.5 0-.1 1.6-.4 3.5-.6 3.8-.5 7.5-1.2 7.5-1.5 0-.1 1.1-.3 2.5-.4 1.4-.2 4.3-.6 6.5-1 2.2-.5 4.9-1 6-1.1 1.1-.2 4.7-.8 8-1.4 3.3-.6 7.6-1.3 9.5-1.6 1.9-.4 4.9-.8 6.5-1.1 1.7-.2 3.9-.6 5.1-.8 1.2-.2 4.5-.7 7.4-1.1 2.9-.4 6.2-.9 7.4-1.1 4-.8 11.1-1.7 14.3-1.8 1.8-.1 3.3-.3 3.3-.6s1-.5 2.3-.6c2.9-.1 15.6-1.6 23.4-2.8 2.1-.3 6.5-.8 9.8-1.1 6.1-.6 11.3-1.1 17.5-2 3.9-.5 13.8-1.5 21.5-2 2.8-.2 5-.5 5-.6 0-.1 2-.3 4.5-.4 2.5-.1 4.5-.3 4.5-.4 0-.1 3.6-.4 8-.7 10.2-.7 16-1.2 16-1.4 0-.2 19.1-1.2 26.2-1.4 3.5 0 6.3-.3 6.3-.6s3-.6 6.8-.7c6.4-.1 14.7-.9 14.7-1.3 0-.1.9-.3 2-.5 4.8-.8 7.2-1.7 15.2-5.5 8.5-4.2 11.3-6.1 18.8-13.5 4.7-4.6 11.9-14.8 13-18.5.4-1.4 1.2-3 1.7-3.6.5-.7 1.1-2.1 1.3-3.3.6-2.8 1.4-6 2.3-9.1.8-3.2.8-756.1 0-761.5-1-6-2.4-10.9-4.2-14.5-.9-1.8-1.6-3.9-1.6-4.7 0-.7-.4-1.3-1-1.3-.5 0-1-.5-1-1.2 0-1.2-7.1-10.8-10.6-14.2-2.9-3-11.1-9.6-11.8-9.6-.4 0-2.4-1.1-4.5-2.4-2.1-1.4-4.2-2.2-4.5-1.9-.3.4-.6.2-.6-.3s-2.1-1.6-4.7-2.3c-2.7-.7-5.5-1.5-6.3-1.8-.8-.3-2.2-.8-3-1.1-1.7-.5-30.8-1-31.3-.6z"/></svg>